<?xml version="1.0" standalone="no"?>
<!DOCTYPE svg PUBLIC "-//W3C//DTD SVG 20010904//EN"
 "http://www.w3.org/TR/2001/REC-SVG-20010904/DTD/svg10.dtd">
<svg version="1.0" xmlns="http://www.w3.org/2000/svg"
 width="499.000000pt" height="241.000000pt" viewBox="0 0 499.000000 241.000000"
 preserveAspectRatio="xMidYMid meet">

<g transform="translate(0.000000,241.000000) scale(0.100000,-0.100000)"
fill="#000000" stroke="none">
<path d="M3730 2205 l0 -75 560 0 560 0 0 -565 0 -565 70 0 70 0 0 640 0 640
-630 0 -630 0 0 -75z"/>
<path d="M660 1639 c0 -25 315 -829 323 -826 7 2 236 577 263 660 5 15 -3 17
-74 17 l-80 0 -26 -72 c-14 -40 -39 -109 -55 -152 l-28 -79 -20 54 c-11 30
-49 134 -83 232 l-63 177 -79 0 c-52 0 -78 -4 -78 -11z"/>
<path d="M1717 1638 c-39 -99 -317 -820 -317 -824 0 -3 37 -4 83 -2 l82 3 80
228 c44 125 82 227 85 227 3 0 41 -102 86 -227 l80 -228 82 -3 c45 -2 82 0 82
3 0 4 -183 477 -317 823 -3 6 -9 12 -13 12 -4 0 -10 -6 -13 -12z"/>
<path d="M2210 1576 l0 -75 169 -3 c153 -3 172 -5 197 -24 51 -38 51 -110 0
-148 -25 -19 -44 -21 -197 -24 l-169 -4 0 -244 0 -244 80 0 80 0 0 171 0 170
46 -3 46 -3 71 -155 c40 -85 76 -161 80 -167 10 -16 167 -18 167 -3 0 6 -34
83 -75 172 -41 89 -75 167 -75 172 0 6 22 25 49 43 66 43 93 99 93 193 0 88
-29 151 -89 197 -58 43 -116 53 -308 53 l-165 0 0 -74z"/>
<path d="M3400 1351 c0 -287 -1 -299 -21 -325 -30 -38 -77 -59 -134 -59 -62 0
-109 23 -135 66 -18 29 -20 51 -20 250 l0 217 -80 0 -80 0 0 -223 c0 -249 8
-296 60 -359 45 -54 143 -99 229 -106 104 -7 198 24 261 87 76 76 80 99 80
453 l0 298 -80 0 -80 0 0 -299z"/>
<path d="M3710 1330 l0 -321 78 3 77 3 5 169 5 170 190 -272 189 -272 78 0 78
0 0 420 0 421 -77 -3 -78 -3 -5 -271 -5 -271 -190 273 -190 273 -77 1 -78 0 0
-320z"/>
<path d="M0 805 l0 -645 633 2 632 3 3 73 3 72 -561 0 -560 0 0 570 0 570 -75
0 -75 0 0 -645z"/>
</g>
</svg>
